<svg width="24" height="24" fill="none" xmlns="http://www.w3.org/2000/svg"><path d="M23.743 18.2c-.893-1.69-3.996-3.521-4.132-3.601-.4-.227-.815-.347-1.204-.347-.58 0-1.053.265-1.34.747-.454.543-1.017 1.178-1.153 1.276-1.057.717-1.885.636-2.8-.28l-5.111-5.11c-.91-.91-.994-1.749-.281-2.8.1-.137.734-.7 1.277-1.155a1.48 1.48 0 00.688-.888c.138-.5.036-1.087-.29-1.66-.077-.131-1.91-3.234-3.598-4.127A2.2 2.2 0 004.773 0c-.586 0-1.138.229-1.552.643L2.09 1.772C.305 3.557-.34 5.582.17 7.787c.425 1.838 1.665 3.795 3.685 5.814l6.542 6.543c2.557 2.556 4.994 3.853 7.244 3.853 1.656 0 3.199-.703 4.586-2.09l1.129-1.13a2.184 2.184 0 00.388-2.578z" fill="#000"/></svg>