<svg width="32" height="32" fill="none" xmlns="http://www.w3.org/2000/svg"><path d="M25.436 6.57c-2.776-2.777-6.563-4.178-10.539-3.858-5.345.43-10.03 4.147-11.598 9.275-1.12 3.664-.65 7.489 1.174 10.649l-1.728 5.737a.735.735 0 00.894.922l6.005-1.61a13.307 13.307 0 006.364 1.622h.005c5.594 0 10.762-3.422 12.55-8.722 1.741-5.168.453-10.43-3.127-14.014zm-2.905 14.17c-.278.777-1.636 1.526-2.247 1.58-.61.057-1.183.277-3.993-.831-3.383-1.333-5.519-4.801-5.684-5.023-.167-.222-1.359-1.804-1.359-3.441 0-1.637.86-2.443 1.165-2.775.306-.333.666-.416.888-.416.222 0 .444 0 .638.008.237.01.5.022.749.575.296.659.943 2.304 1.025 2.47.083.167.139.362.028.583-.11.222-.166.36-.332.555-.166.195-.349.433-.498.583-.167.165-.34.346-.147.678.195.334.861 1.423 1.85 2.304 1.273 1.134 2.343 1.484 2.677 1.652.333.167.526.139.721-.084.195-.221.832-.97 1.053-1.304.222-.333.444-.277.75-.166.305.11 1.941.916 2.273 1.082.333.167.555.25.637.388.083.138.083.804-.194 1.582z" fill="#000"/></svg>