<svg width="36" height="43" fill="none" xmlns="http://www.w3.org/2000/svg"><path d="M35.5 33.58h3v-3h-3v3zm0 9.42v3h3v-3h-3zM2.8 43h-3v3h3v-3zm0-7.44L.751 33.369l-.951.889v1.302h3zm15.72-14.7l2.049 2.191.007-.006.007-.007-2.063-2.178zm3.06-3.66l2.662 1.384.01-.021.011-.021L21.58 17.2zm-.6-6.3l1.91-2.313-1.91 2.313zm-8.34-.06l1.407 2.65.015-.008.015-.008-1.437-2.634zm-3.18 3l-1.461 2.62 2.472 1.38 1.52-2.39-2.531-1.61zM.64 8.92l-2.57-1.549-1.601 2.657 2.71 1.512L.64 8.92zm6.9-6.42l1.399 2.654L7.54 2.5zm18.96-.78l-1.176 2.76.008.003.008.004L26.5 1.72zm5.76 4.5l-2.465 1.71.02.03.021.028L32.26 6.22zm.6 13.2l-2.694-1.32-.005.01-.006.012 2.705 1.298zm-5.64 6.84l-2.024-2.214-.006.005-.006.006 2.036 2.203zm-7.92 7.32l-2.036-2.203-5.63 5.203H19.3v-3zm13.2 0V43h6v-9.42h-6zm3 6.42H2.8v6h32.7v-6zM5.8 43v-7.44h-6V43h6zm-.951-5.249l15.72-14.7-4.098-4.382-15.72 14.7 4.098 4.382zm15.734-14.713c1.592-1.508 2.905-3.004 3.659-4.454l-5.324-2.768c-.286.55-1.013 1.494-2.461 2.866l4.126 4.356zm3.68-4.496c.704-1.407 1.097-2.904 1.097-4.462h-6c0 .522-.127 1.105-.463 1.778l5.366 2.684zm1.097-4.462c0-2.114-.758-4.08-2.47-5.493l-3.82 4.626c.128.106.29.262.29.867h6zm-2.47-5.493c-1.66-1.373-3.792-1.827-5.93-1.827v6c1.383 0 1.931.306 2.11.453l3.82-4.626zM16.96 6.76c-2.042 0-3.979.477-5.757 1.446l2.874 5.268c.862-.47 1.805-.714 2.883-.714v-6zm-5.728 1.43c-1.774.943-3.207 2.318-4.303 4.04l5.062 3.22c.584-.918 1.27-1.543 2.056-1.96l-2.815-5.3zm-.31 3.03L2.101 6.3l-2.923 5.24 8.82 4.92 2.923-5.24zm-7.713-.751c1.343-2.226 3.226-3.996 5.73-5.315L6.14-.154C2.724 1.646.007 4.157-1.93 7.371l5.138 3.098zm5.73-5.315c2.448-1.29 5.448-1.994 9.101-1.994v-6c-4.427 0-8.427.856-11.899 2.686L8.94 5.154zM18.04 3.16c2.877 0 5.284.467 7.284 1.32l2.352-5.52c-2.88-1.227-6.113-1.8-9.636-1.8v6zm7.3 1.327c2.022.848 3.46 2.01 4.455 3.443l4.93-3.42C32.999 2.023 30.598.185 27.66-1.047l-2.32 5.534zm4.496 3.5c.996 1.367 1.524 2.976 1.524 4.953h6c0-3.143-.872-6.014-2.676-8.488l-4.848 3.536zm1.524 4.953c0 1.824-.396 3.532-1.194 5.16l5.388 2.64a17.533 17.533 0 001.806-7.8h-6zm-1.205 5.182c-.716 1.492-2.27 3.465-4.96 5.924l4.05 4.428c2.91-2.661 5.116-5.248 6.32-7.756l-5.41-2.596zm-4.971 5.935l-7.92 7.32 4.072 4.406 7.92-7.32-4.072-4.406zM19.3 36.58h16.2v-6H19.3v6z" fill="#B798E0"/></svg>