<svg width="36" height="43" fill="none" xmlns="http://www.w3.org/2000/svg"><path d="M24.58 16.8l-2.197-2.042-3.626 3.9 5.215 1.08.608-2.938zm7.98 4.32l-2.284 1.945.02.023.02.022 2.244-1.99zm.78 14.64l-2.525-1.62-.011.017-.01.017 2.546 1.586zm-6.12 5.16l1.277 2.715.009-.005.008-.004-1.294-2.706zm-18.96.84l-.728 2.91.01.003.718-2.913zM.76 38.7l-2.701-1.305-1.173 2.427 2.288 1.425L.76 38.7zm4.32-8.94l1.692-2.477-2.877-1.965-1.516 3.137L5.08 29.76zm5.52 2.58l-.846 2.878.007.002.008.002.831-2.882zm10.98-.24l1.605 2.535L21.58 32.1zm-9.6-7.32h-3v3h3v-3zm0-7.5l-2.201-2.038-.799.862v1.176h3zm7.5-8.1l2.201 2.038 4.665-5.038H19.48v3zm-16.56 0h-3v3h3v-3zm0-9.18v-3h-3v3h3zm30.36 0h3v-3h-3v3zm0 7.44l2.197 2.042.803-.863V7.44h-3zm-9.308 12.298c2.995.62 4.996 1.792 6.304 3.327l4.568-3.89c-2.373-2.785-5.69-4.492-9.656-5.313l-1.216 5.876zm6.343 3.372c1.357 1.53 2.065 3.385 2.065 5.75h6c0-3.715-1.172-7.02-3.575-9.73l-4.49 3.98zm2.065 5.75c0 1.896-.51 3.636-1.565 5.28l5.05 3.24c1.665-2.596 2.515-5.456 2.515-8.52h-6zm-1.587 5.314c-.956 1.536-2.507 2.91-4.867 4.04l2.588 5.412c3.16-1.51 5.689-3.576 7.373-6.28l-5.094-3.172zm-4.85 4.032c-2.208 1.038-5.12 1.634-8.863 1.634v6c4.337 0 8.185-.684 11.417-2.206l-2.554-5.428zM17.08 39.84c-2.714 0-5.413-.33-8.102-.993l-1.436 5.826a39.714 39.714 0 009.538 1.167v-6zm-8.092-.99c-2.633-.659-4.832-1.57-6.642-2.697l-3.172 5.094c2.43 1.513 5.23 2.642 8.358 3.423l1.456-5.82zM3.46 40.005l4.32-8.94-5.402-2.61-4.32 8.94 5.402 2.61zm-.073-7.768c1.917 1.31 4.046 2.299 6.366 2.981l1.693-5.756c-1.76-.518-3.312-1.248-4.675-2.18l-3.384 4.955zm6.38 2.985c2.329.672 4.649 1.018 6.952 1.018v-6c-1.697 0-3.457-.254-5.288-.782l-1.663 5.764zm6.952 1.018c2.373 0 4.619-.436 6.465-1.605l-3.21-5.07c-.554.351-1.548.675-3.255.675v6zm6.465-1.605c2.053-1.3 3.195-3.329 3.195-5.775h-6c0 .26-.052.365-.072.403-.023.04-.093.15-.333.302l3.21 5.07zm3.195-5.775c0-2.297-.987-4.315-2.996-5.592-1.779-1.13-4.063-1.488-6.424-1.488v6c1.919 0 2.845.322 3.206.552a.675.675 0 01.13.101.15.15 0 01.026.035c.005.01.058.11.058.392h6zm-9.42-7.08h-4.98v6h4.98v-6zm-1.98 3v-7.5h-6v7.5h6zm-.799-5.462l7.5-8.1-4.402-4.076-7.5 8.1 4.402 4.076zm5.3-13.138H2.92v6h16.56v-6zm-13.56 3V0h-6v9.18h6zM2.92 3h30.36v-6H2.92v6zm27.36-3v7.44h6V0h-6zm.803 5.398l-8.7 9.36 4.394 4.084 8.7-9.36-4.394-4.084z" fill="#B798E0"/></svg>