<svg width="64" height="64" fill="none" xmlns="http://www.w3.org/2000/svg"><path d="M16 2c-5.11 0-9.082 1.73-9.852 4.14A2.99 2.99 0 004 9v6.176c0 3.949.742 7.812 2.203 11.48l5.363 13.453A2.988 2.988 0 0014 41.973V49c0 1.652 1.348 3 3 3h1v4.184c-1.16.414-2 1.515-2 2.816 0 1.652 1.348 3 3 3h8c1.652 0 3-1.348 3-3a3 3 0 00-2-2.816V52h8v4.184c-1.16.414-2 1.515-2 2.816 0 1.652 1.348 3 3 3h8c1.652 0 3-1.348 3-3a3 3 0 00-2-2.816V52h1c1.652 0 3-1.348 3-3v-7.027a2.98 2.98 0 002.434-1.864l5.363-13.453A30.882 30.882 0 0060 15.176V9a2.99 2.99 0 00-2.145-2.86C57.082 3.73 53.11 2 48 2s-9.082 1.73-9.855 4.14A2.99 2.99 0 0036 9v15h-3v-2a1 1 0 100-2h-2a1 1 0 100 2v2h-3V9a2.99 2.99 0 00-2.145-2.86C25.082 3.73 21.11 2 16 2zm0 2c3.645 0 6.305.988 7.418 2H8.582C9.695 4.988 12.355 4 16 4zm32 0c3.645 0 6.305.988 7.418 2H40.582C41.695 4.988 44.355 4 48 4zM7 8h18c.55 0 1 .45 1 1v1H6V9c0-.55.45-1 1-1zm32 0h18c.55 0 1 .45 1 1v1H38V9c0-.55.45-1 1-1zM6 12h20v28H14.355a.996.996 0 01-.93-.629L8.063 25.918A28.897 28.897 0 016 15.176V12zm32 0h20v3.176c0 3.695-.695 7.312-2.063 10.742l-5.363 13.453a.996.996 0 01-.93.629H38V12zM28 26h8v14h-8V26zM16 42h32v7c0 .55-.45 1-1 1H17c-.55 0-1-.45-1-1v-7zm3 2a1 1 0 00-1 1v2a1 1 0 102 0v-2a1 1 0 00-1-1zm5 0a1 1 0 00-1 1v2a1 1 0 102 0v-2a1 1 0 00-1-1zm5 0a1 1 0 00-1 1v2a1 1 0 102 0v-2a1 1 0 00-1-1zm6 0a1 1 0 00-1 1v2a1 1 0 102 0v-2a1 1 0 00-1-1zm5 0a1 1 0 00-1 1v2a1 1 0 102 0v-2a1 1 0 00-1-1zm5 0a1 1 0 00-1 1v2a1 1 0 102 0v-2a1 1 0 00-1-1zm-25 8h6v4h-6v-4zm18 0h6v4h-6v-4zm-19 6h8c.55 0 1 .45 1 1s-.45 1-1 1h-8c-.55 0-1-.45-1-1s.45-1 1-1zm18 0h8c.55 0 1 .45 1 1s-.45 1-1 1h-8c-.55 0-1-.45-1-1s.45-1 1-1z" fill="#000"/></svg>