<svg width="64" height="64" fill="none" xmlns="http://www.w3.org/2000/svg"><path d="M31 2C15.008 2 2 15.008 2 31s13.008 29 29 29 29-13.008 29-29S46.992 2 31 2zm0 2c14.887 0 27 12.113 27 27S45.887 58 31 58 4 45.887 4 31 16.113 4 31 4zm0 4C18.316 8 8 18.316 8 31s10.316 23 23 23 23-10.316 23-23c0-7.105-3.207-13.7-8.8-18.094a1 1 0 00-1.235 1.574C49.07 18.492 52 24.517 52 31c0 11.578-9.422 21-21 21s-21-9.422-21-21 9.422-21 21-21c1.027 0 2.059.074 3.063.223a.997.997 0 001.136-.844 1.004 1.004 0 00-.843-1.137A23.4 23.4 0 0031 8zm7.531 1.344c-.386.02-.746.265-.89.656-.188.516.078 1.09.597 1.281.782.285 1.559.63 2.309 1.012a.997.997 0 001.348-.438 1 1 0 00-.438-1.343 22.689 22.689 0 00-2.531-1.11.98.98 0 00-.395-.058zM31 14c-.55 0-1 .45-1 1v2c0 .55.45 1 1 1s1-.45 1-1v-2c0-.55-.45-1-1-1zm5.98 1.168a.995.995 0 00-.914.625l-.75 1.852a1.001 1.001 0 101.856.75l.75-1.856a1 1 0 00-.941-1.371zm5.118 3.32c-.258.008-.508.11-.703.309l-1.391 1.437a1 1 0 001.437 1.391l1.391-1.438a1.004 1.004 0 00-.02-1.418 1.006 1.006 0 00-.714-.28zM31 20c-.55 0-1 .45-1 1v8.277c-.594.348-1 .985-1 1.723 0 1.102.898 2 2 2 .18 0 .348-.031.512-.074l6.281 6.281c.195.195.45.293.707.293a1 1 0 00.707-1.707l-6.281-6.281c.043-.164.074-.332.074-.512 0-.738-.406-1.375-1-1.723V21c0-.55-.45-1-1-1zm14.598 3.492a1.047 1.047 0 00-.387.086l-1.828.813c-.504.226-.73.816-.508 1.324.168.37.531.594.914.594.137 0 .273-.032.406-.09l1.828-.813c.504-.226.73-.816.508-1.32a1.002 1.002 0 00-.933-.594zM15 30c-.55 0-1 .45-1 1s.45 1 1 1h2c.55 0 1-.45 1-1s-.45-1-1-1h-2zm30 0c-.55 0-1 .45-1 1s.45 1 1 1h2c.55 0 1-.45 1-1s-.45-1-1-1h-2zm-1.035 5.246a.995.995 0 00-.914.625 1.004 1.004 0 00.554 1.3l1.856.75c.121.052.25.075.371.075a1 1 0 00.375-1.93l-1.852-.75a.985.985 0 00-.39-.07zm-2.91 4.477a1.018 1.018 0 00-.703.308.993.993 0 00-.254.555.995.995 0 00.195 1.121l1.313 1.313a.992.992 0 00.706.292.993.993 0 00.708-.292c.035-.036.054-.086.085-.126.04-.03.086-.046.126-.085a1 1 0 00-.028-1.414l-1.437-1.391a1.003 1.003 0 00-.711-.281zM31 44c-.55 0-1 .45-1 1v2c0 .55.45 1 1 1s1-.45 1-1v-2c0-.55-.45-1-1-1z" fill="#000"/></svg>