<svg width="64" height="64" fill="none" xmlns="http://www.w3.org/2000/svg"><path d="M31 2C15.012 2 2 15.008 2 31s13.012 29 29 29 29-13.008 29-29S46.988 2 31 2zm0 2c14.887 0 27 12.113 27 27S45.887 58 31 58 4 45.887 4 31 16.113 4 31 4zm-.438 4.008a23.09 23.09 0 00-15.828 6.726c-8.964 8.97-8.964 23.559 0 32.528a1 1 0 001.418 0 1 1 0 000-1.414c-8.191-8.188-8.187-21.508 0-29.696 4.746-4.75 11.547-6.949 18.188-5.886a1 1 0 00.316-1.977 22.549 22.549 0 00-4.093-.281zm8.094 1.379a.997.997 0 00-.89.648.999.999 0 00.586 1.29 21.74 21.74 0 012.101.913.97.97 0 00.45.11c.363 0 .714-.2.894-.551a1.005 1.005 0 00-.445-1.344c-.743-.375-1.52-.71-2.301-1.004a1.057 1.057 0 00-.395-.062zm5.778 3.289a.998.998 0 00-.496 1.777 20.705 20.705 0 011.91 1.7c8.191 8.187 8.191 21.507 0 29.695a1.004 1.004 0 00.71 1.71c.255 0 .512-.101.708-.292 8.965-8.97 8.965-23.563 0-32.532a24.16 24.16 0 00-2.094-1.855 1.012 1.012 0 00-.738-.203zm-21.918 8.84a1 1 0 00-.707 1.707L29.586 31l-7.777 7.777a1 1 0 101.414 1.414L31 32.414l7.777 7.777c.196.196.45.293.707.293a1 1 0 00.707-1.707L32.414 31l7.777-7.777a1 1 0 10-1.414-1.414L31 29.586l-7.777-7.777a1 1 0 00-.707-.293zm-1.141 25.879a.992.992 0 00-.988.492l-1 1.734a.997.997 0 00.363 1.363.995.995 0 001.363-.363l1-1.734a.998.998 0 00-.738-1.492zm19.25 0a1.002 1.002 0 00-.738 1.496l1 1.73a.995.995 0 001.363.363.993.993 0 00.363-1.363l-1-1.73a1.002 1.002 0 00-.988-.496zm-14.809 1.949a1.007 1.007 0 00-.832.734l-.515 1.934a1 1 0 001.933.515l.52-1.933a1.001 1.001 0 00-.707-1.223.926.926 0 00-.399-.027zm10.372 0a.944.944 0 00-.403.027c-.531.14-.847.691-.707 1.223l.52 1.933a1.003 1.003 0 001.226.707 1 1 0 00.707-1.222l-.515-1.934a1.007 1.007 0 00-.828-.734zM31 50a1 1 0 00-1 1v2a1 1 0 102 0v-2a1 1 0 00-1-1z" fill="#000"/></svg>