<svg width="64" height="64" fill="none" xmlns="http://www.w3.org/2000/svg"><path d="M30.996 6.016a.971.971 0 00-.183.015 1.905 1.905 0 00-.188.055 1.862 1.862 0 00-.172.094c-.027.02-.066.027-.094.05L18 16.46v-3.4c0-.555-.445-1-1-1-.555 0-1 .445-1 1v5c0 .015.008.03.012.05L14 19.77V9.056a1 1 0 10-2 0V21.06c0 .109.031.214.063.316L1.358 30.23a1.002 1.002 0 101.282 1.54L6 28.988V54H3a1 1 0 100 2h56a1 1 0 100-2h-3V28.988l3.36 2.782c.187.156.413.23.64.23.285 0 .57-.125.77-.36a1.002 1.002 0 00-.133-1.41l-29-24c-.028-.023-.063-.03-.094-.05a.787.787 0 00-.18-.094 1.313 1.313 0 00-.175-.055 1.027 1.027 0 00-.192-.015zM31 8.296l23 19.036V44H38v-8c0-1.102-.898-2-2-2H26c-1.102 0-2 .898-2 2v8H8V27.332L31 8.297zM31 18c-2.758 0-5 2.242-5 5s2.242 5 5 5 5-2.242 5-5-2.242-5-5-5zm0 1.793A3.21 3.21 0 0134.207 23 3.21 3.21 0 0131 26.207 3.21 3.21 0 0127.793 23 3.21 3.21 0 0131 19.793zM26 36h10v17.95H26V36zm7 7a1 1 0 00-1 1v2a1 1 0 102 0v-2a1 1 0 00-1-1zM8 46h16v8H8v-8zm30 0h16v8H38v-8zm-27 2a1 1 0 00-1 1v2a1 1 0 102 0v-2a1 1 0 00-1-1zm5 0a1 1 0 00-1 1v2a1 1 0 102 0v-2a1 1 0 00-1-1zm5 0a1 1 0 00-1 1v2a1 1 0 102 0v-2a1 1 0 00-1-1zm20 0a1 1 0 00-1 1v2a1 1 0 102 0v-2a1 1 0 00-1-1zm5 0a1 1 0 00-1 1v2a1 1 0 102 0v-2a1 1 0 00-1-1zm5 0a1 1 0 00-1 1v2a1 1 0 102 0v-2a1 1 0 00-1-1z" fill="#000"/></svg>