<svg width="64" height="64" fill="none" xmlns="http://www.w3.org/2000/svg"><path d="M21.656 4c-1.336 0-2.59.52-3.535 1.465L9.465 14.12A4.964 4.964 0 008 17.656V57c0 1.652 1.348 3 3 3h40c1.652 0 3-1.348 3-3V7c0-1.652-1.348-3-3-3H21.656zM22 6h29c.55 0 1 .45 1 1v50c0 .55-.45 1-1 1H11c-.55 0-1-.45-1-1V18h9c1.652 0 3-1.348 3-3V6zm-2 .5V15c0 .55-.45 1-1 1h-8.5a2.82 2.82 0 01.379-.465l8.656-8.656c.145-.14.3-.266.465-.379zM20 24c-2.207 0-4 1.793-4 4s1.793 4 4 4 4-1.793 4-4-1.793-4-4-4zm0 1.75a2.25 2.25 0 11-.001 4.501A2.25 2.25 0 0120 25.75zm17 4.664c-.512 0-1.023.195-1.414.586L29 37.586 26.414 35a2 2 0 00-2.828 0l-9 9h-1.543c-.625 0-1.043.398-1.043 1s.523 1 1.043 1h35.938c.519 0 1.042-.398 1.042-1s-.523-1-1.043-1H25.415L37 32.414l8.293 8.293a1 1 0 101.414-1.414L38.414 31A1.994 1.994 0 0037 30.414zm-12 6L27.586 39l-5 5h-5.172L25 36.414zM13 52c-.55 0-1 .45-1 1v2c0 .55.45 1 1 1s1-.45 1-1v-2c0-.55-.45-1-1-1zm5 0c-.55 0-1 .45-1 1v2c0 .55.45 1 1 1s1-.45 1-1v-2c0-.55-.45-1-1-1zm5 0c-.55 0-1 .45-1 1v2c0 .55.45 1 1 1s1-.45 1-1v-2c0-.55-.45-1-1-1zm5 0c-.55 0-1 .45-1 1v2c0 .55.45 1 1 1s1-.45 1-1v-2c0-.55-.45-1-1-1zm5 0c-.55 0-1 .45-1 1v2c0 .55.45 1 1 1s1-.45 1-1v-2c0-.55-.45-1-1-1zm5 0c-.55 0-1 .45-1 1v2c0 .55.45 1 1 1s1-.45 1-1v-2c0-.55-.45-1-1-1zm5 0c-.55 0-1 .45-1 1v2c0 .55.45 1 1 1s1-.45 1-1v-2c0-.55-.45-1-1-1zm5 0c-.55 0-1 .45-1 1v2c0 .55.45 1 1 1s1-.45 1-1v-2c0-.55-.45-1-1-1z" fill="#000"/></svg>