<svg width="64" height="64" fill="none" xmlns="http://www.w3.org/2000/svg"><path d="M31 0C20.523 0 12 8.523 12 19v7H9c-1.652 0-3 1.348-3 3v30c0 1.652 1.348 3 3 3h46c1.652 0 3-1.348 3-3V29c0-1.652-1.348-3-3-3H20v-7c0-6.066 4.934-11 11-11h2c6.066 0 11 4.934 11 11 0 1.652 1.348 3 3 3h2c1.652 0 3-1.348 3-3C52 8.523 43.477 0 33 0h-2zm0 2h2c.34 0 .668.031 1 .05v4A12.07 12.07 0 0033 6h-2c-.34 0-.668.023-1 .05v-4c.332-.019.66-.05 1-.05zm-3 .281v4.082C22.277 7.723 18 12.867 18 19v7h-4v-7c0-8.348 6.055-15.297 14-16.719zm8 0C43.945 3.703 50 10.652 50 19c0 .55-.45 1-1 1h-2c-.55 0-1-.45-1-1 0-6.133-4.277-11.277-10-12.637V2.281zM9 28h46c.55 0 1 .45 1 1v30c0 .55-.45 1-1 1H9c-.55 0-1-.45-1-1V29c0-.55.45-1 1-1zm23 4c-5.516 0-10 4.484-10 10s4.484 10 10 10 10-4.484 10-10-4.484-10-10-10zm0 2c4.41 0 8 3.59 8 8s-3.59 8-8 8-8-3.59-8-8 3.59-8 8-8zm0 1a1 1 0 00-1 1v1.832a1 1 0 102 0V36a1 1 0 00-1-1zm-4.184 1.734a.984.984 0 00-.707.293.995.995 0 000 1.41l1.297 1.297a.989.989 0 001.41 0 .988.988 0 000-1.41l-1.293-1.297a.984.984 0 00-.707-.293zm8.485 0a.99.99 0 00-.707.293l-1.297 1.297a.995.995 0 000 1.41c.195.2.453.297.707.297a.999.999 0 00.71-.297l1.298-1.297a.995.995 0 000-1.41.993.993 0 00-.711-.293zM26 41a1 1 0 100 2h1.832a1 1 0 100-2H26zm10.168 0a1 1 0 100 2H38a1 1 0 100-2h-1.832zm-1.277 2.805a.993.993 0 00-.707.293.993.993 0 000 1.414l1.293 1.297a.994.994 0 00.707.293 1 1 0 00.707-1.707l-1.297-1.297a.991.991 0 00-.703-.293zm-5.778.117a.994.994 0 00-.707.293l-1.297 1.297a1 1 0 101.414 1.414l1.293-1.297a.993.993 0 000-1.414.978.978 0 00-.703-.293zM32 45a1 1 0 00-1 1v1.832a1 1 0 102 0V46a1 1 0 00-1-1zM11 56a1 1 0 100 2h34a1 1 0 100-2H11zm38 0a1 1 0 100 2h4a1 1 0 100-2h-4z" fill="#000"/></svg>