<svg width="548" height="460" fill="none" xmlns="http://www.w3.org/2000/svg"><path d="M25.664 404.92c4.65 23.021 20.58 37.279 20.58 37.279s8.389-23.067 3.738-46.088c-4.65-23.022-20.58-37.279-20.58-37.279s-8.389 23.067-3.738 46.088z" fill="#3F3D56"/><path d="M47.422 442.968l-.635-.047c-.193-.013-19.486-1.606-32.25-18.243C1.776 408.041.068 382.257.053 381.998L0 381.15l.635.046c.193.014 19.487 1.607 32.25 18.244 12.762 16.637 14.47 42.421 14.486 42.68l.051.848zM1.23 382.751c.418 4.603 2.938 26.335 14.083 40.862 11.144 14.528 27.434 17.317 30.881 17.754-.418-4.604-2.938-26.334-14.083-40.862-11.152-14.54-27.435-17.319-30.881-17.754zm423.488 48.596c6.758 0 12.237-7.337 12.237-16.387 0-9.049-5.479-16.386-12.237-16.386s-12.236 7.337-12.236 16.386c0 9.05 5.478 16.387 12.236 16.387z" fill="#3F3D56"/><path d="M263.51 253.166H96.587v189.879H263.51V253.166z" fill="#D0CDE1"/><path d="M237.491 417.817H68.759V225.514h168.732v192.303zm-166.92-2.426H235.68V227.94H70.57v187.451z" fill="#3F3D56"/><path d="M176.65 175.481l-3.421 5.414a3.522 3.522 0 01-1.106 1.07c-.42.25-.874.378-1.334.378-.46 0-.914-.128-1.335-.378a3.52 3.52 0 01-1.105-1.07l-3.422-5.414v-37.617h11.723v37.617z" fill="#6C63FF"/><path d="M189.443 107.338h-6.298c1.713-3.335 2.628-7.29 2.624-11.338 0-11.078-6.707-30.525-14.98-30.525S155.809 84.922 155.809 96c-.004 4.048.911 8.003 2.624 11.338h-6.298c-1.27.005-2.487.683-3.385 1.886-.898 1.202-1.404 2.832-1.408 4.532v4.607c.004 1.701.51 3.331 1.408 4.533.898 1.203 2.115 1.88 3.385 1.885h37.308c1.27-.005 2.486-.682 3.384-1.885.898-1.202 1.405-2.832 1.408-4.533v-4.607c-.003-1.7-.51-3.33-1.408-4.532-.898-1.203-2.114-1.881-3.384-1.886z" fill="#3F3D56"/><path d="M170.789 187.621c-.786.005-1.561-.238-2.263-.708s-1.312-1.155-1.781-1.999l-5.228-9.334v-64.523h18.543v64.523l-5.228 9.334c-.468.844-1.078 1.529-1.781 1.999-.702.47-1.477.713-2.262.708zm-8.313-12.469l5.036 8.992c.381.681.876 1.234 1.445 1.615a3.28 3.28 0 001.832.579 3.28 3.28 0 001.832-.579c.568-.381 1.063-.934 1.445-1.615l5.036-8.992v-62.811h-16.626v62.811z" fill="#3F3D56"/><path d="M176.54 208.599c0 2.042-.606 4.001-1.684 5.446-1.079 1.444-2.542 2.255-4.067 2.255-1.526 0-2.989-.811-4.067-2.255-1.079-1.445-1.685-3.404-1.685-5.446 0-4.254 5.752-12.837 5.752-12.837s5.751 8.583 5.751 12.837z" fill="#6C63FF"/><path opacity=".2" d="M237.408 253.525c-.066 23.602-7.115 46.206-19.601 62.864-12.487 16.657-29.393 26.01-47.018 26.01s-34.532-9.353-47.019-26.01c-12.486-16.658-19.534-39.262-19.601-62.864h133.239z" fill="#6C63FF"/><path d="M225.901 253.166c-.054 19.525-5.885 38.227-16.215 52.008-10.329 13.781-24.316 21.519-38.897 21.519-14.582 0-28.569-7.738-38.898-21.519-10.33-13.781-16.16-32.483-16.215-52.008h110.225z" fill="#6C63FF"/><path d="M127.654 51.355c8.47 0 15.337-9.195 15.337-20.538s-6.867-20.538-15.337-20.538c-8.471 0-15.337 9.195-15.337 20.538s6.866 20.538 15.337 20.538z" fill="#3F3D56"/><path d="M170.789 51.355c8.47 0 15.337-9.195 15.337-20.538s-6.867-20.538-15.337-20.538c-8.471 0-15.337 9.195-15.337 20.538s6.866 20.538 15.337 20.538z" fill="#6C63FF"/><path d="M213.924 51.355c8.47 0 15.337-9.195 15.337-20.538s-6.867-20.538-15.337-20.538c-8.47 0-15.337 9.195-15.337 20.538s6.867 20.538 15.337 20.538z" fill="#D0CDE1"/><path d="M329.814 442.215H16.896v1.486h312.918v-1.486zm106.503 1.285V170.731h93.444V443.5h-93.444zm1.345-270.968V441.7h90.755V172.532h-90.755z" fill="#3F3D56"/><path d="M512.954 408.392V206.741h-60.503v201.651h60.503z" fill="#D0CDE1"/><path d="M500.854 275.158v-48.612h-36.302v48.612h36.302z" fill="#6C63FF"/><path d="M493.621 358.662l15.137-11.703-8.739-20.27-15.137 11.703 8.739 20.27z" fill="#FF6584"/><path d="M480.014 386.786v-79.22h-17.479v79.22h17.479z" fill="#3F3D56"/><path d="M378.232 267.264l-26.231 74.547 18.362 13.66 32.644-74.547-24.775-13.66z" fill="#FFB8B8"/><path opacity=".1" d="M378.232 267.264l-26.231 74.547 18.362 13.66 32.644-74.547-24.775-13.66z" fill="#000"/><path d="M353.167 331.663l-31.478 86.646-17.779 23.808s-24.482.391-14.864 12.88c9.618 12.49 39.347-2.342 39.347-2.342l-.874 4.684 19.236-2.342-.583-9.367-1.749-1.171s1.166-17.954-1.749-21.466c-2.914-3.513 5.247-7.806 5.247-7.806l33.518-78.06-28.272-5.464z" fill="#2F2E41"/><path d="M362.202 261.8s-27.98 21.857-20.693 41.762c7.286 19.905 9.618 21.466 9.618 21.466l14.864-14.441-2.623-8.196 29.146-22.637s-22.442-23.028-30.312-17.954z" fill="#FFB8B8"/><path d="M344.715 322.296l39.93 85.475 4.08 23.808s-14.573 24.589-3.789 26.15c10.784 1.562 23.025-21.466 23.608-32.004.583-10.538 1.458-17.173 1.458-17.173l2.914 1.561s8.744-18.734 4.372-21.076a57.058 57.058 0 00-7.869-3.513s-6.412-5.464-12.533-3.512c0 0 1.166-6.245 0-8.977s-32.292-71.596-32.292-71.596l-19.879 20.857z" fill="#2F2E41"/><path d="M413.499 92.41c8.853 0 16.03-9.61 16.03-21.466 0-11.855-7.177-21.466-16.03-21.466-8.853 0-16.03 9.61-16.03 21.466 0 11.856 7.177 21.467 16.03 21.467z" fill="#FFB8B8"/><path d="M409.127 84.605s5.83 22.247 4.372 28.492c-1.457 6.244-13.115 35.517-13.115 35.517l1.457 13.66 29.146-60.106s-7.287-12.88-5.246-21.857l-16.614 4.294z" fill="#FFB8B8"/><path d="M419.911 250.872l-8.452 46.445s-41.971-33.565-53.629-32.395c0 0 25.357-38.639 34.975-38.639 9.618 0 27.106 24.589 27.106 24.589z" fill="#2F2E41"/><path d="M440.896 105.291s-6.703-14.441-14.864-1.952c-8.161 12.49-23.026 45.275-23.026 45.275l1.042-9.331s-9.202 9.331-9.785 21.43c-.583 12.099-2.915 52.69-2.915 52.69l-3.789 17.173 36.141 28.102 5.829-13.27s21.86 5.464 24.191 1.951c2.332-3.513-13.576-60.582-13.576-60.582l.752-81.486z" fill="#575A89"/><path d="M409.127 186.473l-17.487 32.394s-20.986 10.929-17.488 19.905c3.498 8.977 21.277-13.66 21.277-13.66l26.231-30.833-12.533-7.806z" fill="#FFB8B8"/><path opacity=".1" d="M426.323 108.803s-12.824 27.321-13.407 48.007c-.583 20.686-.437 18.539-.437 18.539l-6.412 12.099 15.156 11.319 7.723-10.733s17.196-6.635 15.156-25.76c-2.04-19.124-3.206-54.641-6.12-54.641-2.915 0-11.659 1.17-11.659 1.17z" fill="#000"/><path d="M426.906 104.9s-12.824 27.321-13.407 48.007c-.583 20.686.875 21.076.875 21.076l-7.87 14.051 14.573 10.538 8.452-14.441s17.197-6.635 15.156-25.76c-2.04-19.124-3.206-54.642-6.12-54.642-2.915 0-11.659 1.171-11.659 1.171z" fill="#575A89"/><path d="M394.834 66.703s-4.936-31.934 20.918-23.944c0 0 17.78-6.278 25.419 23.323l7.797 31.051-3.04-1.828-1.133 4.122-4.638 2.088-2.331-5.172-.606 6.632-38.438 9.138s16.563-15.515 15.432-40.167l-3.037 5.015-16.343-10.258z" fill="#2F2E41"/></svg>